<?xml version="1.0" encoding="utf-8"?>
<!-- Generator: Adobe Illustrator 27.0.0, SVG Export Plug-In . SVG Version: 6.00 Build 0)  -->
<svg version="1.1" id="_图层_2" xmlns="http://www.w3.org/2000/svg" xmlns:xlink="http://www.w3.org/1999/xlink" x="0px" y="0px"
	 viewBox="0 0 114.2 35.4" style="enable-background:new 0 0 114.2 35.4;" xml:space="preserve">
<style type="text/css">
	.st0{fill:none;}
	.st1{fill:#EC7102;}
</style>
<g id="Layer_1">
	<path class="st0" d="M106.2,33.3c0,0.1,0.1,0.2,0.1,0.2c0,0.1,0.1,0.1,0.2,0.1s0.2,0,0.2-0.1c0.1-0.1,0.1-0.1,0.1-0.2v-1.4h-0.7
		L106.2,33.3L106.2,33.3L106.2,33.3z"/>
	<path class="st1" d="M112.5,30.8h1.8v-1c0-0.5-0.2-0.8-0.7-1c-0.4-0.2-0.9-0.3-1.6-0.3c-0.7,0-1.2,0.1-1.6,0.3
		c-0.4,0.2-0.7,0.6-0.7,1V32h2.6v1.4c0,0.1-0.1,0.2-0.1,0.3s-0.1,0.1-0.2,0.1s-0.2,0-0.2-0.1s-0.1-0.1-0.1-0.3v-1.2h-2v1.1
		c0,0.5,0.2,0.8,0.7,1c0.4,0.2,0.9,0.3,1.6,0.3c0.7,0,1.2-0.1,1.6-0.3c0.4-0.2,0.7-0.6,0.7-1v-2.2h-2.6v-1.4c0-0.1,0.1-0.2,0.1-0.3
		c0-0.1,0.1-0.1,0.2-0.1s0.2,0,0.2,0.1c0.1,0.1,0.1,0.1,0.1,0.3v1.1L112.5,30.8L112.5,30.8z"/>
	<path class="st1" d="M108.8,33.2v-3.5c0-0.4-0.2-0.8-0.7-1c-0.4-0.2-0.9-0.2-1.6-0.2c-0.7,0-1.2,0.1-1.6,0.2
		c-0.4,0.2-0.7,0.6-0.7,1v1.2h2v-1.2c0-0.1,0-0.2,0.1-0.2s0.1-0.1,0.2-0.1s0.2,0,0.2,0.1c0,0.1,0.1,0.1,0.1,0.2v1.4h-2.6v2.3
		c0,0.5,0.2,0.8,0.7,1c0.4,0.2,0.9,0.2,1.6,0.2c0.2,0,0.4,0,0.6,0c1-0.1,0.5,0,0.9,0h1.4v-1.4H109C108.9,33.2,108.9,33.2,108.8,33.2
		z M106.8,33.5c0,0.1,0,0.2-0.1,0.2c-0.1,0.1-0.1,0.1-0.2,0.1s-0.2,0-0.2-0.1s-0.1-0.1-0.1-0.2v-1.4h0.7L106.8,33.5L106.8,33.5
		L106.8,33.5z"/>
	<rect x="101.8" y="27.2" class="st1" width="1.9" height="7.4"/>
	<path class="st1" d="M100.6,33.5c-0.2-0.1-0.2-0.2-0.2-0.4v-3.6h1.1v-0.9h-1.1v-1.2h-2v1.2h-0.9v0.9h0.9v3.7c0,0.6,0.1,1,0.3,1.2
		s0.7,0.2,1.5,0.2h1.2v-1.1h-0.4C100.9,33.6,100.7,33.6,100.6,33.5z"/>
	<g id="a">
		<path class="st1" d="M97.8,34.5h-3.5l-0.6-3.3h-1.6l-0.6,3.3H88l2.7-12.3h4.5C95,22.2,97.8,34.5,97.8,34.5L97.8,34.5z M93.3,29.5
			l-0.5-3.7l-0.5,3.7H93.3z"/>
	</g>
	<g id="c">
		<path class="st1" d="M76.9,32.5c0,0.9-0.5,1.7-1.5,2.1c-0.8,0.4-1.8,0.5-3.4,0.5s-2.6-0.1-3.4-0.5c-0.9-0.4-1.5-1.2-1.5-2.1v-7.7
			c0-0.9,0.5-1.7,1.5-2.1c0.8-0.4,2-0.7,3.4-0.7s2.5,0.1,3.3,0.5c0.9,0.4,1.5,1.1,1.5,2.1v3h-4.1v-3.2c0-0.3-0.1-0.4-0.1-0.5
			c0-0.1-0.3-0.1-0.5-0.1s-0.4,0-0.5,0.1c-0.1,0.1-0.3,0.3-0.3,0.5v7.9c0,0.3,0.1,0.4,0.1,0.5s0.3,0.1,0.5,0.1s0.4,0,0.5-0.1
			c0.1-0.1,0.1-0.3,0.1-0.5v-3h4.2L76.9,32.5C76.9,32.5,76.9,32.5,76.9,32.5z"/>
	</g>
	<path class="st1" d="M62.3,33.4c0,0.1,0.1,0.2,0.1,0.3c0,0.1,0.1,0.1,0.3,0.1s0.2,0,0.3-0.1c0.1-0.1,0.1-0.1,0.1-0.3v-1.5h-0.7
		C62.3,31.9,62.3,33.4,62.3,33.4z"/>
	<path class="st1" d="M60.8,28.8c-0.3-0.2-0.6-0.2-1.1-0.2c-0.3,0-0.5,0-0.8,0.1c-0.3,0.1-0.4,0.1-0.5,0.2v-0.2h-2.2v6.1h2.2v-4.9
		c0-0.1,0-0.1,0.1-0.2c0.1-0.1,0.1-0.1,0.3-0.1c0.2,0,0.3,0.1,0.3,0.3v1.3h2.2c0,0,0-1.7,0.1-1.7C61.3,29.2,61.1,29,60.8,28.8z"/>
	<rect x="53.2" y="30.9" class="st1" width="2.2" height="3.7"/>
	<path class="st1" d="M55.5,28.5h-2.2v1.6h2.2v-1.3c0,0,0,0,0,0L55.5,28.5L55.5,28.5C55.5,28.6,55.5,28.5,55.5,28.5z"/>
	<path class="st1" d="M79.4,29.5c-0.1,0-0.2,0-0.2,0.1S79,29.7,79,29.8v1.4h0.7v-1.4c0-0.1-0.1-0.2-0.1-0.2
		C79.7,29.5,79.5,29.5,79.4,29.5L79.4,29.5z"/>
	<path class="st1" d="M81.4,28.8c-0.4-0.2-0.9-0.2-1.6-0.2c-0.7,0-1.2,0.1-1.6,0.3c-0.4,0.2-0.7,0.6-0.7,1v3.6c0,0.4,0.2,0.8,0.7,1
		c0.4,0.2,0.9,0.2,1.6,0.2s1.2-0.1,1.6-0.2c0.4-0.2,0.7-0.6,0.7-1v-1.2h-2v1.2c0,0.1,0,0.2-0.1,0.2c-0.1,0.1-0.1,0.1-0.2,0.1
		s-0.2,0-0.2-0.1c0-0.1-0.1-0.1-0.1-0.2v-1.4h2.6v-2.3C82.1,29.3,81.9,29,81.4,28.8z M80.2,31.1h-0.7v-1.4c0-0.1,0.1-0.2,0.1-0.2
		c0.1-0.1,0.1-0.1,0.2-0.1s0.2,0,0.2,0.1c0,0.1,0.1,0.1,0.1,0.2L80.2,31.1L80.2,31.1L80.2,31.1z"/>
	<rect x="82.7" y="27.2" class="st1" width="1.9" height="7.4"/>
	<rect x="85.2" y="27.2" class="st1" width="1.9" height="7.4"/>
	<path class="st1" d="M36.5,20c0-3.6-2.9-6.4-6.4-6.4H16.8v17c-6.7-0.4-12.1-6-12.1-12.9S10.5,4.7,17.7,4.7c4.8,0,8.9,2.6,11.2,6.4
		h1.7c1.4,0,2.7,0.3,3.9,0.9C32.1,5.1,25.4,0,17.7,0C7.9,0,0,7.9,0,17.7s7.5,17.2,16.8,17.6v0h6.8v-8.9H30
		C33.6,26.4,36.5,23.5,36.5,20C36.5,20,36.5,20,36.5,20z M28,22.2h-4.5v-4.4H28c1.2,0,2.2,1,2.2,2.2C30.3,21.2,29.3,22.2,28,22.2z"
		/>
	<polygon class="st1" points="26.2,28.2 29.7,35.4 37.4,35.4 33.4,28.3 	"/>
	<path class="st1" d="M41.3,28.8c-0.4-0.2-0.9-0.2-1.6-0.2s-1.2,0.1-1.6,0.3c-0.4,0.2-0.7,0.6-0.7,1v3.6c0,0.4,0.2,0.8,0.7,1
		c0.4,0.2,0.9,0.2,1.6,0.2s1.2-0.1,1.6-0.2c0.4-0.2,0.7-0.6,0.7-1v-1.2h-2v1.2c0,0.1,0,0.2-0.1,0.2c-0.1,0.1-0.1,0.1-0.2,0.1
		c-0.1,0-0.2,0-0.2-0.1c0-0.1-0.1-0.1-0.1-0.2v-1.4H42v-2.3C42,29.3,41.8,29,41.3,28.8z M40.1,31.1h-0.7v-1.4c0-0.1,0.1-0.2,0.1-0.2
		s0.1-0.1,0.2-0.1s0.2,0,0.2,0.1c0,0.1,0.1,0.1,0.1,0.2V31.1z"/>
	<path class="st1" d="M45.2,30.8l1.8,0v-0.1l0-0.5l0-0.4c0-0.4-0.3-0.8-0.7-1c-0.4-0.2-0.9-0.2-1.6-0.2c-0.7,0-1.2,0.1-1.6,0.3
		c-0.4,0.2-0.7,0.6-0.7,1l0,2.2l2.6-0.1l0,1.4c0,0.1-0.1,0.2-0.1,0.3c0,0.1-0.1,0.1-0.2,0.1c-0.1,0-0.2,0-0.2-0.1
		c-0.1-0.1-0.1-0.1-0.1-0.3l0-1.2l-2,0l0,1.1c0,0.4,0.3,0.8,0.7,1c0.4,0.2,0.9,0.2,1.6,0.2c0.7,0,1.2-0.1,1.6-0.3
		c0.4-0.2,0.7-0.6,0.7-1l0-2.1v0l-2.6,0.1l0-1.4c0-0.1,0.1-0.2,0.1-0.3c0-0.1,0.1-0.1,0.2-0.1c0.1,0,0.2,0,0.2,0.1
		c0.1,0.1,0.1,0.1,0.1,0.3l0,1.1L45.2,30.8L45.2,30.8z"/>
	<path class="st1" d="M65.4,28.7c-0.4-0.2-0.9-0.2-1.6-0.2c-0.7,0-1.2,0.1-1.6,0.3c-0.4,0.2-0.7,0.6-0.7,1v3.6c0,0.4,0.2,0.8,0.7,1
		c0.4,0.2,0.9,0.2,1.6,0.2c0.7,0,1.2-0.1,1.6-0.2c0.4-0.2,0.7-0.6,0.7-1v-1.2h-2v1.2c0,0.1,0,0.2-0.1,0.2c-0.1,0.1-0.1,0.1-0.2,0.1
		c-0.1,0-0.2,0-0.2-0.1s-0.1-0.1-0.1-0.2V32h2.6v-2.3C66.1,29.2,65.9,28.9,65.4,28.7z M64.2,31h-0.7v-1.4c0-0.1,0.1-0.2,0.1-0.2
		c0.1-0.1,0.1-0.1,0.2-0.1c0.1,0,0.2,0,0.2,0.1s0.1,0.1,0.1,0.2V31z"/>
	<g>
		<polyline class="st1" points="49.6,28.8 49.6,28.5 47.4,28.6 47.6,34.7 49.7,34.6 49.6,29.7 		"/>
		<path class="st1" d="M51,32c0.9,0,1.6-0.8,1.6-1.6l0-0.7c0-0.5-0.2-0.8-0.7-1c-0.4-0.2-0.9-0.2-1.6-0.2c-0.7,0-0.6,0.4-1.3,0.4
			c-0.5,0.1-0.8,0.2-0.9,0.4c-0.1,0.1-0.1,0.3-0.1,0.3c0,0.1,0,0.1,0,0.2c0,0.1,0,0.2,0,0.2c0,0.5,0,1.9,0,2 M50.7,31.1l-0.7,0
			l0-1.4c0-0.1,0.1-0.2,0.1-0.2c0.1-0.1,0.1-0.1,0.2-0.1c0.1,0,0.2,0,0.2,0.1c0,0.1,0.1,0.1,0.1,0.2C50.7,29.7,50.7,31.1,50.7,31.1z
			"/>
	</g>
</g>
</svg>
